<svg width="180" height="39" viewBox="0 0 180 39" fill="none" xmlns="http://www.w3.org/2000/svg">
<path d="M19.8182 10.3125C19.6193 9.62121 19.34 9.01042 18.9801 8.48011C18.6203 7.94034 18.1799 7.4858 17.6591 7.11648C17.1477 6.73769 16.5606 6.44886 15.8977 6.25C15.2443 6.05114 14.5199 5.9517 13.7244 5.9517C12.2377 5.9517 10.9309 6.32102 9.80398 7.05966C8.68655 7.79829 7.81534 8.87311 7.19034 10.2841C6.56534 11.6856 6.25284 13.3996 6.25284 15.4261C6.25284 17.4527 6.56061 19.1761 7.17614 20.5966C7.79167 22.017 8.66288 23.1013 9.78977 23.8494C10.9167 24.5881 12.2472 24.9574 13.7812 24.9574C15.1733 24.9574 16.3617 24.7112 17.3466 24.2188C18.3409 23.7169 19.0985 23.0114 19.6193 22.1023C20.1496 21.1932 20.4148 20.1184 20.4148 18.8778L21.6648 19.0625H14.1648V14.4318H26.3381V18.0966C26.3381 20.6534 25.7983 22.8504 24.7188 24.6875C23.6392 26.5152 22.1525 27.9261 20.2585 28.9205C18.3646 29.9053 16.196 30.3977 13.7528 30.3977C11.0256 30.3977 8.62974 29.7964 6.56534 28.5938C4.50095 27.3816 2.8911 25.6629 1.7358 23.4375C0.589962 21.2027 0.0170455 18.5511 0.0170455 15.483C0.0170455 13.125 0.357955 11.0227 1.03977 9.17614C1.73106 7.32008 2.69697 5.74811 3.9375 4.46023C5.17803 3.17235 6.62216 2.19223 8.26989 1.51989C9.91761 0.847537 11.7027 0.511363 13.625 0.511363C15.2727 0.511363 16.8068 0.75284 18.2273 1.2358C19.6477 1.70928 20.9072 2.38163 22.0057 3.25284C23.1136 4.12405 24.018 5.16098 24.7188 6.36364C25.4195 7.55682 25.8693 8.87311 26.0682 10.3125H19.8182ZM81.157 11.0938H74.9354C74.8217 10.2888 74.5897 9.57386 74.2393 8.94886C73.889 8.31439 73.4392 7.77462 72.8899 7.32955C72.3407 6.88447 71.7062 6.54356 70.9865 6.30682C70.2763 6.07008 69.5045 5.9517 68.6712 5.9517C67.1655 5.9517 65.8539 6.32576 64.7365 7.07386C63.6191 7.8125 62.7526 8.89205 62.1371 10.3125C61.5215 11.7235 61.2138 13.4375 61.2138 15.4545C61.2138 17.5284 61.5215 19.2708 62.1371 20.6818C62.7621 22.0928 63.6333 23.1581 64.7507 23.8778C65.8681 24.5975 67.1607 24.9574 68.6286 24.9574C69.4524 24.9574 70.2147 24.8485 70.9155 24.6307C71.6257 24.4129 72.2554 24.0956 72.8047 23.679C73.3539 23.2528 73.8085 22.7367 74.1683 22.1307C74.5376 21.5246 74.7933 20.8333 74.9354 20.0568L81.157 20.0852C80.996 21.4205 80.5935 22.7083 79.9496 23.9489C79.3151 25.1799 78.4581 26.2831 77.3786 27.2585C76.3085 28.2244 75.0301 28.9915 73.5433 29.5597C72.0661 30.1184 70.3946 30.3977 68.5291 30.3977C65.9344 30.3977 63.6143 29.8106 61.5689 28.6364C59.5329 27.4621 57.9231 25.7623 56.7393 23.5369C55.5651 21.3116 54.978 18.6174 54.978 15.4545C54.978 12.2822 55.5746 9.58333 56.7678 7.35795C57.9609 5.13258 59.5803 3.4375 61.6257 2.27273C63.6712 1.09848 65.9723 0.511363 68.5291 0.511363C70.2147 0.511363 71.7772 0.748105 73.2166 1.22159C74.6655 1.69508 75.9486 2.38636 77.0661 3.29545C78.1835 4.19507 79.0926 5.29829 79.7933 6.60511C80.5036 7.91193 80.9581 9.40814 81.157 11.0938ZM91.6754 30.4119C90.2834 30.4119 89.0429 30.1705 87.9538 29.6875C86.8648 29.1951 86.0031 28.4706 85.3686 27.5142C84.7436 26.5483 84.4311 25.3456 84.4311 23.9062C84.4311 22.6941 84.6536 21.6761 85.0987 20.8523C85.5438 20.0284 86.1499 19.3655 86.9169 18.8636C87.6839 18.3617 88.5552 17.983 89.5305 17.7273C90.5154 17.4716 91.5476 17.2917 92.6271 17.1875C93.8961 17.0549 94.9188 16.9318 95.6953 16.8182C96.4718 16.6951 97.0353 16.5152 97.3857 16.2784C97.736 16.0417 97.9112 15.6913 97.9112 15.2273V15.142C97.9112 14.2424 97.6271 13.5464 97.0589 13.054C96.5002 12.5616 95.7048 12.3153 94.6726 12.3153C93.5836 12.3153 92.7171 12.5568 92.0732 13.0398C91.4292 13.5133 91.0031 14.1098 90.7947 14.8295L85.1982 14.375C85.4822 13.0492 86.041 11.9034 86.8743 10.9375C87.7076 9.96212 88.7824 9.21401 90.0987 8.69318C91.4245 8.16288 92.9586 7.89773 94.701 7.89773C95.9131 7.89773 97.0732 8.03977 98.1811 8.32386C99.2985 8.60795 100.288 9.0483 101.15 9.64489C102.021 10.2415 102.708 11.0085 103.21 11.946C103.711 12.8741 103.962 13.9867 103.962 15.2841V30H98.2237V26.9744H98.0533C97.7029 27.6562 97.2341 28.2576 96.647 28.7784C96.0599 29.2898 95.3544 29.6922 94.5305 29.9858C93.7067 30.2699 92.755 30.4119 91.6754 30.4119ZM93.4084 26.2358C94.2985 26.2358 95.0845 26.0606 95.7663 25.7102C96.4482 25.3504 96.9832 24.8674 97.3714 24.2614C97.7597 23.6553 97.9538 22.9687 97.9538 22.2017V19.8864C97.7644 20.0095 97.504 20.1231 97.1726 20.2273C96.8506 20.322 96.486 20.4119 96.0788 20.4972C95.6716 20.5729 95.2644 20.6439 94.8572 20.7102C94.45 20.767 94.0807 20.8191 93.7493 20.8665C93.0391 20.9706 92.4188 21.1364 91.8885 21.3636C91.3582 21.5909 90.9463 21.8987 90.6527 22.2869C90.3591 22.6657 90.2124 23.1392 90.2124 23.7074C90.2124 24.5312 90.5107 25.161 91.1072 25.5966C91.7133 26.0227 92.4804 26.2358 93.4084 26.2358ZM108.771 30V0.90909H114.822V11.8466H115.006C115.272 11.2595 115.655 10.6629 116.157 10.0568C116.668 9.44129 117.331 8.92992 118.146 8.52273C118.969 8.10606 119.992 7.89773 121.214 7.89773C122.805 7.89773 124.272 8.31439 125.617 9.14773C126.962 9.97159 128.037 11.2169 128.842 12.8835C129.647 14.5407 130.049 16.6193 130.049 19.1193C130.049 21.553 129.656 23.608 128.87 25.2841C128.094 26.9508 127.033 28.215 125.688 29.0767C124.353 29.929 122.857 30.3551 121.2 30.3551C120.025 30.3551 119.026 30.161 118.202 29.7727C117.388 29.3845 116.72 28.8968 116.2 28.3097C115.679 27.7131 115.281 27.1117 115.006 26.5057H114.737V30H108.771ZM114.694 19.0909C114.694 20.3883 114.874 21.5199 115.234 22.4858C115.594 23.4517 116.114 24.2045 116.796 24.7443C117.478 25.2746 118.307 25.5398 119.282 25.5398C120.267 25.5398 121.1 25.2699 121.782 24.7301C122.464 24.1809 122.98 23.4233 123.33 22.4574C123.69 21.482 123.87 20.3598 123.87 19.0909C123.87 17.8314 123.695 16.7235 123.344 15.767C122.994 14.8106 122.478 14.0625 121.796 13.5227C121.114 12.983 120.276 12.7131 119.282 12.7131C118.297 12.7131 117.464 12.9735 116.782 13.4943C116.11 14.0152 115.594 14.7538 115.234 15.7102C114.874 16.6667 114.694 17.7936 114.694 19.0909ZM134.2 30V0.90909H140.251V11.8466H140.436C140.701 11.2595 141.085 10.6629 141.587 10.0568C142.098 9.44129 142.761 8.92992 143.575 8.52273C144.399 8.10606 145.422 7.89773 146.643 7.89773C148.234 7.89773 149.702 8.31439 151.047 9.14773C152.392 9.97159 153.466 11.2169 154.271 12.8835C155.076 14.5407 155.479 16.6193 155.479 19.1193C155.479 21.553 155.086 23.608 154.3 25.2841C153.523 26.9508 152.463 28.215 151.118 29.0767C149.783 29.929 148.286 30.3551 146.629 30.3551C145.455 30.3551 144.456 30.161 143.632 29.7727C142.818 29.3845 142.15 28.8968 141.629 28.3097C141.108 27.7131 140.711 27.1117 140.436 26.5057H140.166V30H134.2ZM140.124 19.0909C140.124 20.3883 140.304 21.5199 140.663 22.4858C141.023 23.4517 141.544 24.2045 142.226 24.7443C142.908 25.2746 143.736 25.5398 144.712 25.5398C145.696 25.5398 146.53 25.2699 147.212 24.7301C147.893 24.1809 148.41 23.4233 148.76 22.4574C149.12 21.482 149.3 20.3598 149.3 19.0909C149.3 17.8314 149.125 16.7235 148.774 15.767C148.424 14.8106 147.908 14.0625 147.226 13.5227C146.544 12.983 145.706 12.7131 144.712 12.7131C143.727 12.7131 142.893 12.9735 142.212 13.4943C141.539 14.0152 141.023 14.7538 140.663 15.7102C140.304 16.6667 140.124 17.7936 140.124 19.0909ZM162.549 38.1818C161.782 38.1818 161.062 38.1203 160.39 37.9972C159.727 37.8835 159.178 37.7367 158.742 37.5568L160.106 33.0398C160.816 33.2576 161.455 33.3759 162.023 33.3949C162.601 33.4138 163.098 33.2813 163.515 32.9972C163.941 32.7131 164.287 32.2301 164.552 31.5483L164.907 30.625L157.08 8.18182H163.444L167.961 24.2045H168.188L172.748 8.18182H179.154L170.674 32.358C170.267 33.5322 169.713 34.5549 169.012 35.4261C168.321 36.3068 167.445 36.9839 166.384 37.4574C165.324 37.9403 164.045 38.1818 162.549 38.1818Z" fill="black"/>
<path d="M40.7024 30.4261C38.496 30.4261 36.5878 29.9574 34.978 29.0199C33.3776 28.0729 32.1418 26.7566 31.2706 25.071C30.3994 23.3759 29.9638 21.411 29.9638 19.1761C29.9638 16.9223 30.3994 14.9527 31.2706 13.267C32.1418 11.572 33.3776 10.2557 34.978 9.31818C36.5878 8.37121 38.496 7.89773 40.7024 7.89773C42.9089 7.89773 44.8123 8.37121 46.4126 9.31818C48.0225 10.2557 49.263 11.572 50.1342 13.267C51.0054 14.9527 51.4411 16.9223 51.4411 19.1761C51.4411 21.411 51.0054 23.3759 50.1342 25.071C49.263 26.7566 48.0225 28.0729 46.4126 29.0199C44.8123 29.9574 42.9089 30.4261 40.7024 30.4261ZM40.7308 25.7386C41.7346 25.7386 42.5727 25.4545 43.245 24.8864C43.9174 24.3087 44.424 23.5227 44.7649 22.5284C45.1153 21.5341 45.2905 20.4025 45.2905 19.1335C45.2905 17.8646 45.1153 16.733 44.7649 15.7386C44.424 14.7443 43.9174 13.9583 43.245 13.3807C42.5727 12.803 41.7346 12.5142 40.7308 12.5142C39.7176 12.5142 38.8653 12.803 38.174 13.3807C37.4922 13.9583 36.9761 14.7443 36.6257 15.7386C36.2848 16.733 36.1143 17.8646 36.1143 19.1335C36.1143 20.4025 36.2848 21.5341 36.6257 22.5284C36.9761 23.5227 37.4922 24.3087 38.174 24.8864C38.8653 25.4545 39.7176 25.7386 40.7308 25.7386Z" fill="#FFDF00"/>
</svg>
